<svg width="520" height="120" viewBox="0 0 520 120" fill="none" xmlns="http://www.w3.org/2000/svg">
<path d="M18.8672 60.0002C18.8672 37.8046 36.8603 19.8115 59.0559 19.8115C81.2515 19.8115 99.2445 37.8046 99.2445 60.0002C99.2445 82.1958 117.238 100.189 139.433 100.189C161.629 100.189 179.622 82.1958 179.622 60.0002C179.622 37.8046 197.615 19.8115 219.811 19.8115C242.006 19.8115 259.999 37.8046 259.999 60.0002C259.999 82.1958 277.992 100.189 300.188 100.189C322.384 100.189 340.377 82.1958 340.377 60.0002C340.377 37.8046 358.37 19.8115 380.565 19.8115C402.761 19.8115 420.754 37.8046 420.754 60.0002C420.754 82.1958 438.747 100.189 460.943 100.189C483.138 100.189 501.131 82.1958 501.131 60.0002" stroke="#F3BFFF" stroke-width="37.7"/>
</svg>
